<svg width="40" height="40" viewBox="364 640 40 40" xmlns="http://www.w3.org/2000/svg"><g fill="none" fill-rule="evenodd" transform="translate(364 640)"><circle fill="#FFF" cx="20" cy="20" r="20"/><path d="M21.018 19.322S20.49 20 20.03 20c-.44 0-.987-.678-.987-.678l-.01-.01-4.772-5.38c-.347-.44-.347-1.162 0-1.602.35-.44.92-.44 1.267 0l4.503 4.505 4.503-4.505c.35-.44.918-.44 1.267 0 .348.44.348 1.16 0 1.6l-4.773 5.382-.01.01zm0 9S20.49 29 20.03 29c-.44 0-.987-.678-.987-.678l-.01-.01-4.772-5.38c-.347-.44-.347-1.162 0-1.602.35-.44.92-.44 1.267 0l4.503 4.505 4.503-4.505c.35-.44.918-.44 1.267 0 .348.44.348 1.16 0 1.6l-4.773 5.382-.01.01z" fill="#000"/></g></svg>